<svg xmlns="http://www.w3.org/2000/svg" xmlns:xlink="http://www.w3.org/1999/xlink" width="500" zoomAndPan="magnify" viewBox="0 0 375 374.999991" height="500" preserveAspectRatio="xMidYMid meet" version="1.2"><defs><clipPath id="e4e66feb48"><path d="M 97.355469 63.976562 L 277.355469 63.976562 L 277.355469 243.976562 L 97.355469 243.976562 Z M 97.355469 63.976562 "/></clipPath><clipPath id="4a2aa0af5c"><path d="M 187.355469 63.976562 C 137.652344 63.976562 97.355469 104.269531 97.355469 153.976562 C 97.355469 203.683594 137.652344 243.976562 187.355469 243.976562 C 237.0625 243.976562 277.355469 203.683594 277.355469 153.976562 C 277.355469 104.269531 237.0625 63.976562 187.355469 63.976562 Z M 187.355469 63.976562 "/></clipPath></defs><g id="9e956f7384"><g clip-rule="nonzero" clip-path="url(#e4e66feb48)"><g clip-rule="nonzero" clip-path="url(#4a2aa0af5c)"><path style="fill:none;stroke-width:28;stroke-linecap:butt;stroke-linejoin:miter;stroke:#223dfe;stroke-opacity:1;stroke-miterlimit:4;" d="M 120.185988 0.000595464 C 53.811598 0.000595464 -0.00152739 53.808505 -0.00152739 120.188111 C -0.00152739 186.567718 53.811598 240.375627 120.185988 240.375627 C 186.565595 240.375627 240.373504 186.567718 240.373504 120.188111 C 240.373504 53.808505 186.565595 0.000595464 120.185988 0.000595464 Z M 120.185988 0.000595464 " transform="matrix(0.74883,0,0,0.74883,97.356613,63.976117)"/></g></g><path style=" stroke:none;fill-rule:nonzero;fill:#223dfe;fill-opacity:1;" d="M 206.558594 110.457031 L 207.203125 110.910156 C 211.378906 113.839844 214.335938 118.179688 215.613281 123.117188 C 216.367188 126.042969 218.191406 128.710938 220.976562 130.476562 C 226.429688 133.941406 233.726562 132.566406 237.558594 127.367188 C 241.699219 121.753906 240.382812 113.863281 234.707031 109.882812 C 232.191406 108.117188 229.246094 107.417969 226.410156 107.695312 C 221.222656 108.195312 216.035156 106.710938 211.765625 103.71875 L 211.441406 103.492188 C 205.921875 99.621094 202.613281 93.378906 202.285156 86.644531 C 201.976562 80.382812 198.859375 74.324219 193.289062 70.484375 C 184.003906 64.082031 171.175781 66.285156 164.566406 75.421875 C 157.726562 84.871094 159.964844 98.054688 169.480469 104.726562 C 175.007812 108.605469 181.769531 109.421875 187.746094 107.535156 C 194.125 105.523438 201.082031 106.613281 206.558594 110.457031 Z M 207.859375 140.988281 L 207.214844 140.53125 C 203.035156 137.605469 200.078125 133.265625 198.804688 128.324219 C 198.046875 125.398438 196.222656 122.730469 193.4375 120.964844 C 187.984375 117.503906 180.6875 118.875 176.855469 124.074219 C 172.71875 129.691406 174.03125 137.578125 179.710938 141.5625 C 182.226562 143.324219 185.167969 144.023438 188.003906 143.746094 C 193.195312 143.246094 198.382812 144.730469 202.652344 147.722656 L 202.972656 147.949219 C 208.492188 151.824219 211.800781 158.0625 212.132812 164.796875 C 212.441406 171.058594 215.554688 177.117188 221.128906 180.957031 C 230.414062 187.359375 243.238281 185.15625 249.851562 176.019531 C 256.691406 166.570312 254.449219 153.386719 244.9375 146.714844 C 239.40625 142.835938 232.648438 142.019531 226.667969 143.90625 C 220.289062 145.917969 213.332031 144.828125 207.859375 140.988281 Z M 166.925781 166.964844 L 167.570312 167.417969 C 171.746094 170.347656 174.703125 174.6875 175.980469 179.628906 C 176.734375 182.554688 178.5625 185.222656 181.34375 186.988281 C 186.796875 190.449219 194.09375 189.078125 197.925781 183.878906 C 202.0625 178.261719 200.753906 170.375 195.074219 166.390625 C 192.558594 164.628906 189.613281 163.929688 186.78125 164.203125 C 181.589844 164.707031 176.402344 163.222656 172.132812 160.230469 L 171.808594 160.003906 C 166.289062 156.128906 162.980469 149.890625 162.652344 143.152344 C 162.34375 136.890625 159.226562 130.835938 153.65625 126.996094 C 144.371094 120.59375 131.542969 122.796875 124.933594 131.933594 C 118.09375 141.382812 120.332031 154.5625 129.847656 161.238281 C 135.375 165.117188 142.136719 165.933594 148.113281 164.046875 C 154.492188 162.03125 161.449219 163.125 166.925781 166.964844 Z M 187.035156 200.417969 C 193.015625 198.527344 199.773438 199.347656 205.304688 203.222656 C 214.820312 209.898438 217.054688 223.082031 210.21875 232.53125 C 203.605469 241.667969 190.78125 243.871094 181.496094 237.46875 C 175.925781 233.625 172.808594 227.570312 172.5 221.308594 C 172.167969 214.570312 168.863281 208.332031 163.339844 204.460938 L 163.015625 204.234375 C 158.75 201.242188 153.5625 199.757812 148.371094 200.257812 C 145.535156 200.53125 142.59375 199.835938 140.078125 198.070312 C 134.398438 194.085938 133.085938 186.199219 137.222656 180.585938 C 141.054688 175.382812 148.351562 174.011719 153.804688 177.472656 C 156.589844 179.238281 158.414062 181.90625 159.171875 184.835938 C 160.445312 189.773438 163.402344 194.113281 167.578125 197.042969 L 168.226562 197.496094 C 173.703125 201.335938 180.65625 202.429688 187.035156 200.417969 "/><g style="fill:#223dfe;fill-opacity:1;"><g transform="translate(74.942117, 278.923868)"><path style="stroke:none" d="M 1.546875 -19.59375 L 6.578125 -19.59375 L 10.890625 -7.5625 L 11.90625 -4.765625 L 12.453125 -4.765625 L 11.484375 -9.09375 L 11.484375 -19.59375 L 15.265625 -19.59375 L 15.265625 0 L 10.21875 0 L 5.90625 -12.046875 L 4.90625 -14.84375 L 4.34375 -14.84375 L 5.3125 -10.5 L 5.3125 0 L 1.546875 0 Z M 1.546875 -19.59375 "/></g></g><g style="fill:#223dfe;fill-opacity:1;"><g transform="translate(92.299816, 278.923868)"><path style="stroke:none" d="M 2.515625 -3.359375 L 6.4375 -3.359375 L 6.4375 -16.234375 L 2.515625 -16.234375 L 2.515625 -19.59375 L 14.28125 -19.59375 L 14.28125 -16.234375 L 10.21875 -16.234375 L 10.21875 -3.359375 L 14.28125 -3.359375 L 14.28125 0 L 2.515625 0 Z M 2.515625 -3.359375 "/></g></g><g style="fill:#223dfe;fill-opacity:1;"><g transform="translate(109.657515, 278.923868)"><path style="stroke:none" d="M 0.5625 -19.59375 L 4.484375 -19.59375 L 7.703125 -7 L 8.125 -3.921875 L 8.6875 -3.921875 L 9.125 -7 L 12.3125 -19.59375 L 16.234375 -19.59375 L 10.640625 0 L 6.15625 0 Z M 0.5625 -19.59375 "/></g></g><g style="fill:#223dfe;fill-opacity:1;"><g transform="translate(127.015214, 278.923868)"><path style="stroke:none" d="M 1.6875 -19.59375 L 14.84375 -19.59375 L 14.84375 -16.234375 L 5.453125 -16.234375 L 5.453125 -11.625 L 14.28125 -11.625 L 14.28125 -8.265625 L 5.453125 -8.265625 L 5.453125 -3.359375 L 15.125 -3.359375 L 15.125 0 L 1.6875 0 Z M 1.6875 -19.59375 "/></g></g><g style="fill:#223dfe;fill-opacity:1;"><g transform="translate(144.372912, 278.923868)"><path style="stroke:none" d="M 1.8125 -19.59375 L 5.59375 -19.59375 L 5.59375 -3.359375 L 15.125 -3.359375 L 15.125 0 L 1.8125 0 Z M 1.8125 -19.59375 "/></g></g><g style="fill:#223dfe;fill-opacity:1;"><g transform="translate(161.730611, 278.923868)"><path style="stroke:none" d="M 8.265625 0.28125 C 7.253906 0.28125 6.300781 0.148438 5.40625 -0.109375 C 4.507812 -0.367188 3.722656 -0.753906 3.046875 -1.265625 C 2.378906 -1.785156 1.835938 -2.429688 1.421875 -3.203125 C 1.015625 -3.984375 0.773438 -4.875 0.703125 -5.875 L 4.484375 -5.875 C 4.628906 -5.09375 5.023438 -4.429688 5.671875 -3.890625 C 6.328125 -3.347656 7.191406 -3.078125 8.265625 -3.078125 C 9.585938 -3.078125 10.546875 -3.34375 11.140625 -3.875 C 11.742188 -4.40625 12.046875 -5.023438 12.046875 -5.734375 C 12.046875 -6.367188 11.78125 -6.835938 11.25 -7.140625 C 10.726562 -7.441406 10.070312 -7.6875 9.28125 -7.875 C 8.488281 -8.070312 7.632812 -8.269531 6.71875 -8.46875 C 5.800781 -8.664062 4.945312 -8.96875 4.15625 -9.375 C 3.363281 -9.789062 2.707031 -10.363281 2.1875 -11.09375 C 1.664062 -11.832031 1.40625 -12.847656 1.40625 -14.140625 C 1.40625 -15.085938 1.582031 -15.914062 1.9375 -16.625 C 2.300781 -17.34375 2.789062 -17.941406 3.40625 -18.421875 C 4.03125 -18.910156 4.753906 -19.273438 5.578125 -19.515625 C 6.410156 -19.753906 7.304688 -19.875 8.265625 -19.875 C 9.378906 -19.875 10.363281 -19.726562 11.21875 -19.4375 C 12.082031 -19.15625 12.8125 -18.75 13.40625 -18.21875 C 14.007812 -17.695312 14.472656 -17.085938 14.796875 -16.390625 C 15.117188 -15.691406 15.320312 -14.941406 15.40625 -14.140625 L 11.625 -14.140625 C 11.550781 -14.453125 11.4375 -14.753906 11.28125 -15.046875 C 11.132812 -15.335938 10.929688 -15.585938 10.671875 -15.796875 C 10.421875 -16.015625 10.109375 -16.1875 9.734375 -16.3125 C 9.367188 -16.445312 8.925781 -16.515625 8.40625 -16.515625 C 7.800781 -16.515625 7.289062 -16.441406 6.875 -16.296875 C 6.46875 -16.160156 6.140625 -15.976562 5.890625 -15.75 C 5.640625 -15.519531 5.457031 -15.265625 5.34375 -14.984375 C 5.238281 -14.703125 5.1875 -14.421875 5.1875 -14.140625 C 5.1875 -13.484375 5.445312 -12.988281 5.96875 -12.65625 C 6.488281 -12.320312 7.144531 -12.046875 7.9375 -11.828125 C 8.726562 -11.617188 9.582031 -11.410156 10.5 -11.203125 C 11.414062 -10.992188 12.269531 -10.6875 13.0625 -10.28125 C 13.851562 -9.882812 14.507812 -9.332031 15.03125 -8.625 C 15.550781 -7.914062 15.8125 -6.953125 15.8125 -5.734375 C 15.8125 -3.910156 15.164062 -2.453125 13.875 -1.359375 C 12.59375 -0.265625 10.722656 0.28125 8.265625 0.28125 Z M 8.265625 0.28125 "/></g></g><g style="fill:#223dfe;fill-opacity:1;"><g transform="translate(179.08831, 278.923868)"><path style="stroke:none" d="M 1.6875 -19.59375 L 14.84375 -19.59375 L 14.84375 -16.234375 L 5.453125 -16.234375 L 5.453125 -11.625 L 14.28125 -11.625 L 14.28125 -8.265625 L 5.453125 -8.265625 L 5.453125 -3.359375 L 15.125 -3.359375 L 15.125 0 L 1.6875 0 Z M 1.6875 -19.59375 "/></g></g><g style="fill:#223dfe;fill-opacity:1;"><g transform="translate(196.446009, 278.923868)"><path style="stroke:none" d="M 1.546875 -19.59375 L 9.515625 -19.59375 C 10.484375 -19.59375 11.375 -19.429688 12.1875 -19.109375 C 13 -18.796875 13.691406 -18.351562 14.265625 -17.78125 C 14.847656 -17.21875 15.296875 -16.546875 15.609375 -15.765625 C 15.929688 -14.984375 16.09375 -14.113281 16.09375 -13.15625 C 16.09375 -12.039062 15.875 -11.109375 15.4375 -10.359375 C 15 -9.609375 14.519531 -9.019531 14 -8.59375 C 13.382812 -8.09375 12.6875 -7.703125 11.90625 -7.421875 L 16.234375 0 L 12.046875 0 L 7.84375 -7.140625 L 5.3125 -7.140625 L 5.3125 0 L 1.546875 0 Z M 9.234375 -10.21875 C 9.679688 -10.21875 10.097656 -10.296875 10.484375 -10.453125 C 10.867188 -10.617188 11.195312 -10.835938 11.46875 -11.109375 C 11.738281 -11.390625 11.945312 -11.71875 12.09375 -12.09375 C 12.238281 -12.46875 12.3125 -12.867188 12.3125 -13.296875 C 12.3125 -14.140625 12.023438 -14.835938 11.453125 -15.390625 C 10.890625 -15.953125 10.148438 -16.234375 9.234375 -16.234375 L 5.3125 -16.234375 L 5.3125 -10.21875 Z M 9.234375 -10.21875 "/></g></g><g style="fill:#223dfe;fill-opacity:1;"><g transform="translate(213.803708, 278.923868)"><path style="stroke:none" d="M 0.5625 -19.59375 L 4.484375 -19.59375 L 7.703125 -7 L 8.125 -3.921875 L 8.6875 -3.921875 L 9.125 -7 L 12.3125 -19.59375 L 16.234375 -19.59375 L 10.640625 0 L 6.15625 0 Z M 0.5625 -19.59375 "/></g></g><g style="fill:#223dfe;fill-opacity:1;"><g transform="translate(231.161407, 278.923868)"><path style="stroke:none" d="M 2.515625 -3.359375 L 6.4375 -3.359375 L 6.4375 -16.234375 L 2.515625 -16.234375 L 2.515625 -19.59375 L 14.28125 -19.59375 L 14.28125 -16.234375 L 10.21875 -16.234375 L 10.21875 -3.359375 L 14.28125 -3.359375 L 14.28125 0 L 2.515625 0 Z M 2.515625 -3.359375 "/></g></g><g style="fill:#223dfe;fill-opacity:1;"><g transform="translate(248.519106, 278.923868)"><path style="stroke:none" d="M 8.40625 0.28125 C 7.28125 0.28125 6.238281 0.0703125 5.28125 -0.34375 C 4.320312 -0.769531 3.488281 -1.398438 2.78125 -2.234375 C 2.082031 -3.078125 1.535156 -4.128906 1.140625 -5.390625 C 0.753906 -6.648438 0.5625 -8.117188 0.5625 -9.796875 C 0.5625 -11.472656 0.753906 -12.941406 1.140625 -14.203125 C 1.535156 -15.460938 2.082031 -16.515625 2.78125 -17.359375 C 3.488281 -18.203125 4.320312 -18.832031 5.28125 -19.25 C 6.238281 -19.664062 7.28125 -19.875 8.40625 -19.875 C 10.382812 -19.875 11.992188 -19.304688 13.234375 -18.171875 C 14.472656 -17.046875 15.332031 -15.46875 15.8125 -13.4375 L 12.046875 -13.4375 C 11.691406 -14.5625 11.191406 -15.351562 10.546875 -15.8125 C 9.898438 -16.28125 9.1875 -16.515625 8.40625 -16.515625 C 7.84375 -16.515625 7.3125 -16.394531 6.8125 -16.15625 C 6.320312 -15.914062 5.894531 -15.53125 5.53125 -15 C 5.164062 -14.46875 4.875 -13.773438 4.65625 -12.921875 C 4.445312 -12.066406 4.34375 -11.023438 4.34375 -9.796875 C 4.34375 -8.566406 4.445312 -7.523438 4.65625 -6.671875 C 4.875 -5.828125 5.164062 -5.140625 5.53125 -4.609375 C 5.894531 -4.078125 6.320312 -3.6875 6.8125 -3.4375 C 7.3125 -3.195312 7.84375 -3.078125 8.40625 -3.078125 C 9.1875 -3.078125 9.898438 -3.3125 10.546875 -3.78125 C 11.191406 -4.25 11.691406 -5.039062 12.046875 -6.15625 L 15.8125 -6.15625 C 15.332031 -4.125 14.472656 -2.539062 13.234375 -1.40625 C 11.992188 -0.28125 10.382812 0.28125 8.40625 0.28125 Z M 8.40625 0.28125 "/></g></g><g style="fill:#223dfe;fill-opacity:1;"><g transform="translate(265.876804, 278.923868)"><path style="stroke:none" d="M 1.6875 -19.59375 L 14.84375 -19.59375 L 14.84375 -16.234375 L 5.453125 -16.234375 L 5.453125 -11.625 L 14.28125 -11.625 L 14.28125 -8.265625 L 5.453125 -8.265625 L 5.453125 -3.359375 L 15.125 -3.359375 L 15.125 0 L 1.6875 0 Z M 1.6875 -19.59375 "/></g></g><g style="fill:#223dfe;fill-opacity:1;"><g transform="translate(283.234503, 278.923868)"><path style="stroke:none" d="M 8.265625 0.28125 C 7.253906 0.28125 6.300781 0.148438 5.40625 -0.109375 C 4.507812 -0.367188 3.722656 -0.753906 3.046875 -1.265625 C 2.378906 -1.785156 1.835938 -2.429688 1.421875 -3.203125 C 1.015625 -3.984375 0.773438 -4.875 0.703125 -5.875 L 4.484375 -5.875 C 4.628906 -5.09375 5.023438 -4.429688 5.671875 -3.890625 C 6.328125 -3.347656 7.191406 -3.078125 8.265625 -3.078125 C 9.585938 -3.078125 10.546875 -3.34375 11.140625 -3.875 C 11.742188 -4.40625 12.046875 -5.023438 12.046875 -5.734375 C 12.046875 -6.367188 11.78125 -6.835938 11.25 -7.140625 C 10.726562 -7.441406 10.070312 -7.6875 9.28125 -7.875 C 8.488281 -8.070312 7.632812 -8.269531 6.71875 -8.46875 C 5.800781 -8.664062 4.945312 -8.96875 4.15625 -9.375 C 3.363281 -9.789062 2.707031 -10.363281 2.1875 -11.09375 C 1.664062 -11.832031 1.40625 -12.847656 1.40625 -14.140625 C 1.40625 -15.085938 1.582031 -15.914062 1.9375 -16.625 C 2.300781 -17.34375 2.789062 -17.941406 3.40625 -18.421875 C 4.03125 -18.910156 4.753906 -19.273438 5.578125 -19.515625 C 6.410156 -19.753906 7.304688 -19.875 8.265625 -19.875 C 9.378906 -19.875 10.363281 -19.726562 11.21875 -19.4375 C 12.082031 -19.15625 12.8125 -18.75 13.40625 -18.21875 C 14.007812 -17.695312 14.472656 -17.085938 14.796875 -16.390625 C 15.117188 -15.691406 15.320312 -14.941406 15.40625 -14.140625 L 11.625 -14.140625 C 11.550781 -14.453125 11.4375 -14.753906 11.28125 -15.046875 C 11.132812 -15.335938 10.929688 -15.585938 10.671875 -15.796875 C 10.421875 -16.015625 10.109375 -16.1875 9.734375 -16.3125 C 9.367188 -16.445312 8.925781 -16.515625 8.40625 -16.515625 C 7.800781 -16.515625 7.289062 -16.441406 6.875 -16.296875 C 6.46875 -16.160156 6.140625 -15.976562 5.890625 -15.75 C 5.640625 -15.519531 5.457031 -15.265625 5.34375 -14.984375 C 5.238281 -14.703125 5.1875 -14.421875 5.1875 -14.140625 C 5.1875 -13.484375 5.445312 -12.988281 5.96875 -12.65625 C 6.488281 -12.320312 7.144531 -12.046875 7.9375 -11.828125 C 8.726562 -11.617188 9.582031 -11.410156 10.5 -11.203125 C 11.414062 -10.992188 12.269531 -10.6875 13.0625 -10.28125 C 13.851562 -9.882812 14.507812 -9.332031 15.03125 -8.625 C 15.550781 -7.914062 15.8125 -6.953125 15.8125 -5.734375 C 15.8125 -3.910156 15.164062 -2.453125 13.875 -1.359375 C 12.59375 -0.265625 10.722656 0.28125 8.265625 0.28125 Z M 8.265625 0.28125 "/></g></g><g style="fill:#223dfe;fill-opacity:1;"><g transform="translate(94.952807, 301.623878)"><path style="stroke:none" d="M 3.3125 -9.09375 L 4.484375 -9.09375 L 7.40625 0 L 6.3125 0 L 5.5625 -2.28125 L 2.234375 -2.28125 L 1.5 0 L 0.390625 0 Z M 5.265625 -3.25 L 4.171875 -6.6875 L 3.96875 -8 L 3.828125 -8 L 3.625 -6.6875 L 2.53125 -3.25 Z M 5.265625 -3.25 "/></g></g><g style="fill:#223dfe;fill-opacity:1;"><g transform="translate(103.01042, 301.623878)"><path style="stroke:none" d="M 3.90625 0.125 C 3.4375 0.125 2.992188 0.0351562 2.578125 -0.140625 C 2.171875 -0.328125 1.820312 -0.609375 1.53125 -0.984375 C 1.238281 -1.367188 1.003906 -1.851562 0.828125 -2.4375 C 0.660156 -3.03125 0.578125 -3.734375 0.578125 -4.546875 C 0.578125 -5.359375 0.660156 -6.0625 0.828125 -6.65625 C 1.003906 -7.25 1.238281 -7.734375 1.53125 -8.109375 C 1.820312 -8.492188 2.171875 -8.773438 2.578125 -8.953125 C 2.992188 -9.140625 3.4375 -9.234375 3.90625 -9.234375 C 4.6875 -9.234375 5.332031 -9.015625 5.84375 -8.578125 C 6.351562 -8.140625 6.726562 -7.507812 6.96875 -6.6875 L 5.859375 -6.6875 C 5.691406 -7.1875 5.445312 -7.570312 5.125 -7.84375 C 4.800781 -8.113281 4.394531 -8.25 3.90625 -8.25 C 3.59375 -8.25 3.300781 -8.179688 3.03125 -8.046875 C 2.757812 -7.921875 2.523438 -7.710938 2.328125 -7.421875 C 2.128906 -7.128906 1.972656 -6.75 1.859375 -6.28125 C 1.742188 -5.8125 1.6875 -5.234375 1.6875 -4.546875 C 1.6875 -3.859375 1.742188 -3.28125 1.859375 -2.8125 C 1.972656 -2.34375 2.128906 -1.960938 2.328125 -1.671875 C 2.523438 -1.378906 2.757812 -1.164062 3.03125 -1.03125 C 3.300781 -0.90625 3.59375 -0.84375 3.90625 -0.84375 C 4.550781 -0.84375 5.050781 -1.09375 5.40625 -1.59375 C 5.769531 -2.101562 5.992188 -2.785156 6.078125 -3.640625 L 4.15625 -3.640625 L 4.15625 -4.609375 L 7.21875 -4.609375 L 7.21875 -4.296875 C 7.195312 -3.703125 7.125 -3.140625 7 -2.609375 C 6.875 -2.078125 6.675781 -1.609375 6.40625 -1.203125 C 6.144531 -0.796875 5.804688 -0.472656 5.390625 -0.234375 C 4.972656 0.00390625 4.476562 0.125 3.90625 0.125 Z M 3.90625 0.125 "/></g></g><g style="fill:#223dfe;fill-opacity:1;"><g transform="translate(111.068033, 301.623878)"><path style="stroke:none" d="M 1.109375 -9.09375 L 6.5625 -9.09375 L 6.5625 -8.125 L 2.203125 -8.125 L 2.203125 -5.0625 L 6.3125 -5.0625 L 6.3125 -4.09375 L 2.203125 -4.09375 L 2.203125 -0.96875 L 6.6875 -0.96875 L 6.6875 0 L 1.109375 0 Z M 1.109375 -9.09375 "/></g></g><g style="fill:#223dfe;fill-opacity:1;"><g transform="translate(119.125646, 301.623878)"><path style="stroke:none" d="M 1.109375 -9.09375 L 2.734375 -9.09375 L 4.984375 -3.21875 L 5.78125 -1.171875 L 5.921875 -1.171875 L 5.59375 -3.375 L 5.59375 -9.09375 L 6.6875 -9.09375 L 6.6875 0 L 5.0625 0 L 2.8125 -5.875 L 2.015625 -7.9375 L 1.890625 -7.9375 L 2.203125 -5.703125 L 2.203125 0 L 1.109375 0 Z M 1.109375 -9.09375 "/></g></g><g style="fill:#223dfe;fill-opacity:1;"><g transform="translate(127.183259, 301.623878)"><path style="stroke:none" d="M 1.109375 -9.09375 L 3.125 -9.09375 C 3.738281 -9.09375 4.296875 -8.992188 4.796875 -8.796875 C 5.296875 -8.597656 5.722656 -8.304688 6.078125 -7.921875 C 6.441406 -7.535156 6.722656 -7.054688 6.921875 -6.484375 C 7.117188 -5.921875 7.21875 -5.273438 7.21875 -4.546875 C 7.21875 -3.785156 7.117188 -3.117188 6.921875 -2.546875 C 6.722656 -1.972656 6.441406 -1.5 6.078125 -1.125 C 5.722656 -0.75 5.296875 -0.46875 4.796875 -0.28125 C 4.296875 -0.09375 3.738281 0 3.125 0 L 1.109375 0 Z M 3.125 -0.96875 C 3.5625 -0.96875 3.960938 -1.046875 4.328125 -1.203125 C 4.691406 -1.359375 5.003906 -1.585938 5.265625 -1.890625 C 5.535156 -2.191406 5.742188 -2.5625 5.890625 -3 C 6.035156 -3.445312 6.109375 -3.960938 6.109375 -4.546875 C 6.109375 -5.128906 6.035156 -5.644531 5.890625 -6.09375 C 5.742188 -6.539062 5.535156 -6.914062 5.265625 -7.21875 C 5.003906 -7.519531 4.691406 -7.742188 4.328125 -7.890625 C 3.960938 -8.046875 3.5625 -8.125 3.125 -8.125 L 2.203125 -8.125 L 2.203125 -0.96875 Z M 3.125 -0.96875 "/></g></g><g style="fill:#223dfe;fill-opacity:1;"><g transform="translate(135.240872, 301.623878)"><path style="stroke:none" d="M 3.3125 -9.09375 L 4.484375 -9.09375 L 7.40625 0 L 6.3125 0 L 5.5625 -2.28125 L 2.234375 -2.28125 L 1.5 0 L 0.390625 0 Z M 5.265625 -3.25 L 4.171875 -6.6875 L 3.96875 -8 L 3.828125 -8 L 3.625 -6.6875 L 2.53125 -3.25 Z M 5.265625 -3.25 "/></g></g><g style="fill:#223dfe;fill-opacity:1;"><g transform="translate(143.298484, 301.623878)"><path style="stroke:none" d="M 0.84375 -9.09375 L 2.34375 -9.09375 L 3.859375 -4.875 L 3.921875 -4.875 L 5.453125 -9.09375 L 6.953125 -9.09375 L 6.953125 0 L 5.84375 0 L 5.84375 -5.453125 L 6.109375 -7.734375 L 5.984375 -7.734375 L 5.5625 -6.5625 L 4.3125 -3.125 L 3.46875 -3.125 L 2.234375 -6.5625 L 1.8125 -7.734375 L 1.6875 -7.734375 L 1.953125 -5.453125 L 1.953125 0 L 0.84375 0 Z M 0.84375 -9.09375 "/></g></g><g style="fill:#223dfe;fill-opacity:1;"><g transform="translate(151.356097, 301.623878)"><path style="stroke:none" d="M 1.109375 -9.09375 L 6.5625 -9.09375 L 6.5625 -8.125 L 2.203125 -8.125 L 2.203125 -5.0625 L 6.3125 -5.0625 L 6.3125 -4.09375 L 2.203125 -4.09375 L 2.203125 -0.96875 L 6.6875 -0.96875 L 6.6875 0 L 1.109375 0 Z M 1.109375 -9.09375 "/></g></g><g style="fill:#223dfe;fill-opacity:1;"><g transform="translate(159.41371, 301.623878)"><path style="stroke:none" d="M 1.109375 -9.09375 L 2.734375 -9.09375 L 4.984375 -3.21875 L 5.78125 -1.171875 L 5.921875 -1.171875 L 5.59375 -3.375 L 5.59375 -9.09375 L 6.6875 -9.09375 L 6.6875 0 L 5.0625 0 L 2.8125 -5.875 L 2.015625 -7.9375 L 1.890625 -7.9375 L 2.203125 -5.703125 L 2.203125 0 L 1.109375 0 Z M 1.109375 -9.09375 "/></g></g><g style="fill:#223dfe;fill-opacity:1;"><g transform="translate(167.471323, 301.623878)"><path style="stroke:none" d="M 3.375 -8.125 L 1.6875 -8.125 L 1.6875 -6.5625 L 0.578125 -6.5625 L 0.578125 -9.09375 L 7.21875 -9.09375 L 7.21875 -6.5625 L 6.109375 -6.5625 L 6.109375 -8.125 L 4.484375 -8.125 L 4.484375 0 L 3.375 0 Z M 3.375 -8.125 "/></g></g><g style="fill:#223dfe;fill-opacity:1;"><g transform="translate(175.528936, 301.623878)"><path style="stroke:none" d="M 3.90625 0.125 C 3.4375 0.125 2.992188 0.0351562 2.578125 -0.140625 C 2.171875 -0.328125 1.820312 -0.609375 1.53125 -0.984375 C 1.238281 -1.367188 1.003906 -1.851562 0.828125 -2.4375 C 0.660156 -3.03125 0.578125 -3.734375 0.578125 -4.546875 C 0.578125 -5.359375 0.660156 -6.0625 0.828125 -6.65625 C 1.003906 -7.25 1.238281 -7.734375 1.53125 -8.109375 C 1.820312 -8.492188 2.171875 -8.773438 2.578125 -8.953125 C 2.992188 -9.140625 3.4375 -9.234375 3.90625 -9.234375 C 4.375 -9.234375 4.8125 -9.140625 5.21875 -8.953125 C 5.625 -8.773438 5.972656 -8.492188 6.265625 -8.109375 C 6.554688 -7.734375 6.785156 -7.25 6.953125 -6.65625 C 7.128906 -6.0625 7.21875 -5.359375 7.21875 -4.546875 C 7.21875 -3.734375 7.128906 -3.03125 6.953125 -2.4375 C 6.785156 -1.851562 6.554688 -1.367188 6.265625 -0.984375 C 5.972656 -0.609375 5.625 -0.328125 5.21875 -0.140625 C 4.8125 0.0351562 4.375 0.125 3.90625 0.125 Z M 3.90625 -0.84375 C 4.21875 -0.84375 4.503906 -0.90625 4.765625 -1.03125 C 5.035156 -1.164062 5.269531 -1.378906 5.46875 -1.671875 C 5.664062 -1.960938 5.820312 -2.34375 5.9375 -2.8125 C 6.050781 -3.28125 6.109375 -3.859375 6.109375 -4.546875 C 6.109375 -5.234375 6.050781 -5.8125 5.9375 -6.28125 C 5.820312 -6.75 5.664062 -7.128906 5.46875 -7.421875 C 5.269531 -7.710938 5.035156 -7.921875 4.765625 -8.046875 C 4.503906 -8.179688 4.21875 -8.25 3.90625 -8.25 C 3.59375 -8.25 3.300781 -8.179688 3.03125 -8.046875 C 2.757812 -7.921875 2.523438 -7.710938 2.328125 -7.421875 C 2.128906 -7.128906 1.972656 -6.75 1.859375 -6.28125 C 1.742188 -5.8125 1.6875 -5.234375 1.6875 -4.546875 C 1.6875 -3.859375 1.742188 -3.28125 1.859375 -2.8125 C 1.972656 -2.34375 2.128906 -1.960938 2.328125 -1.671875 C 2.523438 -1.378906 2.757812 -1.164062 3.03125 -1.03125 C 3.300781 -0.90625 3.59375 -0.84375 3.90625 -0.84375 Z M 3.90625 -0.84375 "/></g></g><g style="fill:#223dfe;fill-opacity:1;"><g transform="translate(183.586549, 301.623878)"><path style="stroke:none" d=""/></g></g><g style="fill:#223dfe;fill-opacity:1;"><g transform="translate(191.644161, 301.623878)"><path style="stroke:none" d="M 1.109375 -9.09375 L 3.125 -9.09375 C 3.738281 -9.09375 4.296875 -8.992188 4.796875 -8.796875 C 5.296875 -8.597656 5.722656 -8.304688 6.078125 -7.921875 C 6.441406 -7.535156 6.722656 -7.054688 6.921875 -6.484375 C 7.117188 -5.921875 7.21875 -5.273438 7.21875 -4.546875 C 7.21875 -3.785156 7.117188 -3.117188 6.921875 -2.546875 C 6.722656 -1.972656 6.441406 -1.5 6.078125 -1.125 C 5.722656 -0.75 5.296875 -0.46875 4.796875 -0.28125 C 4.296875 -0.09375 3.738281 0 3.125 0 L 1.109375 0 Z M 3.125 -0.96875 C 3.5625 -0.96875 3.960938 -1.046875 4.328125 -1.203125 C 4.691406 -1.359375 5.003906 -1.585938 5.265625 -1.890625 C 5.535156 -2.191406 5.742188 -2.5625 5.890625 -3 C 6.035156 -3.445312 6.109375 -3.960938 6.109375 -4.546875 C 6.109375 -5.128906 6.035156 -5.644531 5.890625 -6.09375 C 5.742188 -6.539062 5.535156 -6.914062 5.265625 -7.21875 C 5.003906 -7.519531 4.691406 -7.742188 4.328125 -7.890625 C 3.960938 -8.046875 3.5625 -8.125 3.125 -8.125 L 2.203125 -8.125 L 2.203125 -0.96875 Z M 3.125 -0.96875 "/></g></g><g style="fill:#223dfe;fill-opacity:1;"><g transform="translate(199.701774, 301.623878)"><path style="stroke:none" d="M 1.109375 -9.09375 L 6.5625 -9.09375 L 6.5625 -8.125 L 2.203125 -8.125 L 2.203125 -5.0625 L 6.3125 -5.0625 L 6.3125 -4.09375 L 2.203125 -4.09375 L 2.203125 -0.96875 L 6.6875 -0.96875 L 6.6875 0 L 1.109375 0 Z M 1.109375 -9.09375 "/></g></g><g style="fill:#223dfe;fill-opacity:1;"><g transform="translate(207.759387, 301.623878)"><path style="stroke:none" d=""/></g></g><g style="fill:#223dfe;fill-opacity:1;"><g transform="translate(215.817, 301.623878)"><path style="stroke:none" d="M 4.03125 0.125 C 3.601562 0.125 3.203125 0.0703125 2.828125 -0.03125 C 2.460938 -0.132812 2.132812 -0.289062 1.84375 -0.5 C 1.5625 -0.71875 1.328125 -0.988281 1.140625 -1.3125 C 0.953125 -1.644531 0.832031 -2.03125 0.78125 -2.46875 L 1.890625 -2.46875 C 1.984375 -1.914062 2.222656 -1.503906 2.609375 -1.234375 C 3.003906 -0.972656 3.476562 -0.84375 4.03125 -0.84375 C 4.40625 -0.84375 4.710938 -0.890625 4.953125 -0.984375 C 5.191406 -1.078125 5.382812 -1.203125 5.53125 -1.359375 C 5.675781 -1.515625 5.773438 -1.6875 5.828125 -1.875 C 5.890625 -2.070312 5.921875 -2.269531 5.921875 -2.46875 C 5.921875 -2.757812 5.847656 -2.992188 5.703125 -3.171875 C 5.566406 -3.359375 5.382812 -3.507812 5.15625 -3.625 C 4.925781 -3.75 4.664062 -3.847656 4.375 -3.921875 C 4.082031 -4.003906 3.78125 -4.085938 3.46875 -4.171875 C 3.164062 -4.253906 2.867188 -4.351562 2.578125 -4.46875 C 2.285156 -4.59375 2.023438 -4.75 1.796875 -4.9375 C 1.566406 -5.125 1.382812 -5.363281 1.25 -5.65625 C 1.113281 -5.945312 1.046875 -6.316406 1.046875 -6.765625 C 1.046875 -7.097656 1.109375 -7.414062 1.234375 -7.71875 C 1.359375 -8.019531 1.539062 -8.28125 1.78125 -8.5 C 2.03125 -8.726562 2.332031 -8.90625 2.6875 -9.03125 C 3.039062 -9.164062 3.445312 -9.234375 3.90625 -9.234375 C 4.269531 -9.234375 4.617188 -9.1875 4.953125 -9.09375 C 5.285156 -9.007812 5.582031 -8.875 5.84375 -8.6875 C 6.101562 -8.5 6.316406 -8.257812 6.484375 -7.96875 C 6.660156 -7.675781 6.773438 -7.316406 6.828125 -6.890625 L 5.71875 -6.890625 C 5.644531 -7.316406 5.445312 -7.648438 5.125 -7.890625 C 4.800781 -8.128906 4.394531 -8.25 3.90625 -8.25 C 3.3125 -8.25 2.867188 -8.101562 2.578125 -7.8125 C 2.285156 -7.53125 2.140625 -7.179688 2.140625 -6.765625 C 2.140625 -6.453125 2.207031 -6.195312 2.34375 -6 C 2.488281 -5.800781 2.675781 -5.640625 2.90625 -5.515625 C 3.132812 -5.390625 3.394531 -5.285156 3.6875 -5.203125 C 3.976562 -5.117188 4.273438 -5.035156 4.578125 -4.953125 C 4.890625 -4.867188 5.191406 -4.769531 5.484375 -4.65625 C 5.773438 -4.550781 6.035156 -4.40625 6.265625 -4.21875 C 6.492188 -4.03125 6.675781 -3.796875 6.8125 -3.515625 C 6.945312 -3.242188 7.015625 -2.894531 7.015625 -2.46875 C 7.015625 -2.132812 6.953125 -1.804688 6.828125 -1.484375 C 6.710938 -1.171875 6.53125 -0.894531 6.28125 -0.65625 C 6.039062 -0.414062 5.726562 -0.222656 5.34375 -0.078125 C 4.96875 0.0546875 4.53125 0.125 4.03125 0.125 Z M 4.03125 0.125 "/></g></g><g style="fill:#223dfe;fill-opacity:1;"><g transform="translate(223.874613, 301.623878)"><path style="stroke:none" d="M 1.109375 -9.09375 L 6.5625 -9.09375 L 6.5625 -8.125 L 2.203125 -8.125 L 2.203125 -5.0625 L 6.3125 -5.0625 L 6.3125 -4.09375 L 2.203125 -4.09375 L 2.203125 -0.96875 L 6.6875 -0.96875 L 6.6875 0 L 1.109375 0 Z M 1.109375 -9.09375 "/></g></g><g style="fill:#223dfe;fill-opacity:1;"><g transform="translate(231.932226, 301.623878)"><path style="stroke:none" d="M 1.109375 -9.09375 L 4.296875 -9.09375 C 4.734375 -9.09375 5.125 -9.023438 5.46875 -8.890625 C 5.820312 -8.765625 6.125 -8.582031 6.375 -8.34375 C 6.625 -8.101562 6.816406 -7.816406 6.953125 -7.484375 C 7.085938 -7.148438 7.15625 -6.78125 7.15625 -6.375 C 7.15625 -5.914062 7.078125 -5.519531 6.921875 -5.1875 C 6.765625 -4.863281 6.566406 -4.59375 6.328125 -4.375 C 6.085938 -4.15625 5.820312 -3.984375 5.53125 -3.859375 C 5.238281 -3.742188 4.957031 -3.671875 4.6875 -3.640625 L 7.28125 0 L 6.046875 0 L 3.4375 -3.640625 L 2.203125 -3.640625 L 2.203125 0 L 1.109375 0 Z M 4.21875 -4.609375 C 4.8125 -4.609375 5.265625 -4.757812 5.578125 -5.0625 C 5.890625 -5.375 6.046875 -5.8125 6.046875 -6.375 C 6.046875 -6.925781 5.890625 -7.351562 5.578125 -7.65625 C 5.265625 -7.96875 4.8125 -8.125 4.21875 -8.125 L 2.203125 -8.125 L 2.203125 -4.609375 Z M 4.21875 -4.609375 "/></g></g><g style="fill:#223dfe;fill-opacity:1;"><g transform="translate(239.989839, 301.623878)"><path style="stroke:none" d="M 0.515625 -9.09375 L 1.6875 -9.09375 L 3.53125 -2.53125 L 3.796875 -1.109375 L 3.984375 -1.109375 L 4.265625 -2.53125 L 6.109375 -9.09375 L 7.28125 -9.09375 L 4.609375 0 L 3.1875 0 Z M 0.515625 -9.09375 "/></g></g><g style="fill:#223dfe;fill-opacity:1;"><g transform="translate(248.047451, 301.623878)"><path style="stroke:none" d="M 1.4375 -0.96875 L 3.375 -0.96875 L 3.375 -8.125 L 1.4375 -8.125 L 1.4375 -9.09375 L 6.4375 -9.09375 L 6.4375 -8.125 L 4.484375 -8.125 L 4.484375 -0.96875 L 6.4375 -0.96875 L 6.4375 0 L 1.4375 0 Z M 1.4375 -0.96875 "/></g></g><g style="fill:#223dfe;fill-opacity:1;"><g transform="translate(256.105064, 301.623878)"><path style="stroke:none" d="M 3.1875 2.015625 L 3.828125 2.015625 C 4.179688 2.015625 4.359375 1.84375 4.359375 1.5 C 4.359375 1.363281 4.3125 1.253906 4.21875 1.171875 C 4.125 1.085938 3.992188 1.046875 3.828125 1.046875 L 3.3125 1.046875 L 3.3125 0.578125 L 3.515625 0.109375 C 3.097656 0.0546875 2.707031 -0.0664062 2.34375 -0.265625 C 1.988281 -0.472656 1.679688 -0.765625 1.421875 -1.140625 C 1.160156 -1.523438 0.953125 -2 0.796875 -2.5625 C 0.648438 -3.125 0.578125 -3.785156 0.578125 -4.546875 C 0.578125 -5.359375 0.660156 -6.0625 0.828125 -6.65625 C 1.003906 -7.25 1.238281 -7.734375 1.53125 -8.109375 C 1.820312 -8.492188 2.171875 -8.773438 2.578125 -8.953125 C 2.992188 -9.140625 3.4375 -9.234375 3.90625 -9.234375 C 4.6875 -9.234375 5.332031 -9.015625 5.84375 -8.578125 C 6.351562 -8.140625 6.726562 -7.507812 6.96875 -6.6875 L 5.859375 -6.6875 C 5.691406 -7.1875 5.445312 -7.570312 5.125 -7.84375 C 4.800781 -8.113281 4.394531 -8.25 3.90625 -8.25 C 3.59375 -8.25 3.300781 -8.179688 3.03125 -8.046875 C 2.757812 -7.921875 2.523438 -7.710938 2.328125 -7.421875 C 2.128906 -7.128906 1.972656 -6.75 1.859375 -6.28125 C 1.742188 -5.8125 1.6875 -5.234375 1.6875 -4.546875 C 1.6875 -3.859375 1.742188 -3.28125 1.859375 -2.8125 C 1.972656 -2.34375 2.128906 -1.960938 2.328125 -1.671875 C 2.523438 -1.378906 2.757812 -1.164062 3.03125 -1.03125 C 3.300781 -0.90625 3.59375 -0.84375 3.90625 -0.84375 C 4.394531 -0.84375 4.820312 -1 5.1875 -1.3125 C 5.550781 -1.625 5.816406 -2.140625 5.984375 -2.859375 L 7.078125 -2.859375 C 6.972656 -2.335938 6.820312 -1.894531 6.625 -1.53125 C 6.425781 -1.164062 6.203125 -0.863281 5.953125 -0.625 C 5.710938 -0.394531 5.445312 -0.222656 5.15625 -0.109375 C 4.875 0.00390625 4.585938 0.078125 4.296875 0.109375 L 4.15625 0.453125 C 4.457031 0.484375 4.695312 0.597656 4.875 0.796875 C 5.050781 1.003906 5.140625 1.238281 5.140625 1.5 C 5.140625 1.863281 5.023438 2.148438 4.796875 2.359375 C 4.566406 2.566406 4.289062 2.671875 3.96875 2.671875 L 3.1875 2.671875 Z M 3.1875 2.015625 "/></g></g><g style="fill:#223dfe;fill-opacity:1;"><g transform="translate(264.162677, 301.623878)"><path style="stroke:none" d="M 3.90625 0.125 C 3.4375 0.125 2.992188 0.0351562 2.578125 -0.140625 C 2.171875 -0.328125 1.820312 -0.609375 1.53125 -0.984375 C 1.238281 -1.367188 1.003906 -1.851562 0.828125 -2.4375 C 0.660156 -3.03125 0.578125 -3.734375 0.578125 -4.546875 C 0.578125 -5.359375 0.660156 -6.0625 0.828125 -6.65625 C 1.003906 -7.25 1.238281 -7.734375 1.53125 -8.109375 C 1.820312 -8.492188 2.171875 -8.773438 2.578125 -8.953125 C 2.992188 -9.140625 3.4375 -9.234375 3.90625 -9.234375 C 4.375 -9.234375 4.8125 -9.140625 5.21875 -8.953125 C 5.625 -8.773438 5.972656 -8.492188 6.265625 -8.109375 C 6.554688 -7.734375 6.785156 -7.25 6.953125 -6.65625 C 7.128906 -6.0625 7.21875 -5.359375 7.21875 -4.546875 C 7.21875 -3.734375 7.128906 -3.03125 6.953125 -2.4375 C 6.785156 -1.851562 6.554688 -1.367188 6.265625 -0.984375 C 5.972656 -0.609375 5.625 -0.328125 5.21875 -0.140625 C 4.8125 0.0351562 4.375 0.125 3.90625 0.125 Z M 3.90625 -0.84375 C 4.21875 -0.84375 4.503906 -0.90625 4.765625 -1.03125 C 5.035156 -1.164062 5.269531 -1.378906 5.46875 -1.671875 C 5.664062 -1.960938 5.820312 -2.34375 5.9375 -2.8125 C 6.050781 -3.28125 6.109375 -3.859375 6.109375 -4.546875 C 6.109375 -5.234375 6.050781 -5.8125 5.9375 -6.28125 C 5.820312 -6.75 5.664062 -7.128906 5.46875 -7.421875 C 5.269531 -7.710938 5.035156 -7.921875 4.765625 -8.046875 C 4.503906 -8.179688 4.21875 -8.25 3.90625 -8.25 C 3.59375 -8.25 3.300781 -8.179688 3.03125 -8.046875 C 2.757812 -7.921875 2.523438 -7.710938 2.328125 -7.421875 C 2.128906 -7.128906 1.972656 -6.75 1.859375 -6.28125 C 1.742188 -5.8125 1.6875 -5.234375 1.6875 -4.546875 C 1.6875 -3.859375 1.742188 -3.28125 1.859375 -2.8125 C 1.972656 -2.34375 2.128906 -1.960938 2.328125 -1.671875 C 2.523438 -1.378906 2.757812 -1.164062 3.03125 -1.03125 C 3.300781 -0.90625 3.59375 -0.84375 3.90625 -0.84375 Z M 3.90625 -0.84375 "/></g></g><g style="fill:#223dfe;fill-opacity:1;"><g transform="translate(272.22029, 301.623878)"><path style="stroke:none" d="M 4.03125 0.125 C 3.601562 0.125 3.203125 0.0703125 2.828125 -0.03125 C 2.460938 -0.132812 2.132812 -0.289062 1.84375 -0.5 C 1.5625 -0.71875 1.328125 -0.988281 1.140625 -1.3125 C 0.953125 -1.644531 0.832031 -2.03125 0.78125 -2.46875 L 1.890625 -2.46875 C 1.984375 -1.914062 2.222656 -1.503906 2.609375 -1.234375 C 3.003906 -0.972656 3.476562 -0.84375 4.03125 -0.84375 C 4.40625 -0.84375 4.710938 -0.890625 4.953125 -0.984375 C 5.191406 -1.078125 5.382812 -1.203125 5.53125 -1.359375 C 5.675781 -1.515625 5.773438 -1.6875 5.828125 -1.875 C 5.890625 -2.070312 5.921875 -2.269531 5.921875 -2.46875 C 5.921875 -2.757812 5.847656 -2.992188 5.703125 -3.171875 C 5.566406 -3.359375 5.382812 -3.507812 5.15625 -3.625 C 4.925781 -3.75 4.664062 -3.847656 4.375 -3.921875 C 4.082031 -4.003906 3.78125 -4.085938 3.46875 -4.171875 C 3.164062 -4.253906 2.867188 -4.351562 2.578125 -4.46875 C 2.285156 -4.59375 2.023438 -4.75 1.796875 -4.9375 C 1.566406 -5.125 1.382812 -5.363281 1.25 -5.65625 C 1.113281 -5.945312 1.046875 -6.316406 1.046875 -6.765625 C 1.046875 -7.097656 1.109375 -7.414062 1.234375 -7.71875 C 1.359375 -8.019531 1.539062 -8.28125 1.78125 -8.5 C 2.03125 -8.726562 2.332031 -8.90625 2.6875 -9.03125 C 3.039062 -9.164062 3.445312 -9.234375 3.90625 -9.234375 C 4.269531 -9.234375 4.617188 -9.1875 4.953125 -9.09375 C 5.285156 -9.007812 5.582031 -8.875 5.84375 -8.6875 C 6.101562 -8.5 6.316406 -8.257812 6.484375 -7.96875 C 6.660156 -7.675781 6.773438 -7.316406 6.828125 -6.890625 L 5.71875 -6.890625 C 5.644531 -7.316406 5.445312 -7.648438 5.125 -7.890625 C 4.800781 -8.128906 4.394531 -8.25 3.90625 -8.25 C 3.3125 -8.25 2.867188 -8.101562 2.578125 -7.8125 C 2.285156 -7.53125 2.140625 -7.179688 2.140625 -6.765625 C 2.140625 -6.453125 2.207031 -6.195312 2.34375 -6 C 2.488281 -5.800781 2.675781 -5.640625 2.90625 -5.515625 C 3.132812 -5.390625 3.394531 -5.285156 3.6875 -5.203125 C 3.976562 -5.117188 4.273438 -5.035156 4.578125 -4.953125 C 4.890625 -4.867188 5.191406 -4.769531 5.484375 -4.65625 C 5.773438 -4.550781 6.035156 -4.40625 6.265625 -4.21875 C 6.492188 -4.03125 6.675781 -3.796875 6.8125 -3.515625 C 6.945312 -3.242188 7.015625 -2.894531 7.015625 -2.46875 C 7.015625 -2.132812 6.953125 -1.804688 6.828125 -1.484375 C 6.710938 -1.171875 6.53125 -0.894531 6.28125 -0.65625 C 6.039062 -0.414062 5.726562 -0.222656 5.34375 -0.078125 C 4.96875 0.0546875 4.53125 0.125 4.03125 0.125 Z M 4.03125 0.125 "/></g></g></g></svg>